<svg fill="#000000" xmlns="http://www.w3.org/2000/svg"  viewBox="0 0 48 48" width="48px" height="48px"><path d="M 24.017578 2.5566406 C 23.890742 2.5506726 19.712633 2.3641533 15.207031 4.8046875 C 10.680871 7.2563579 5.9062338 12.504264 4.5976562 22.580078 C 4.5497613 22.699796 2.9911022 26.615832 3.0214844 30.558594 C 3.0227363 30.72329 3.0456583 30.90295 3.0527344 31.072266 L 3.0351562 31.048828 C 3.0351562 31.048828 2.4187031 38.916391 9.3457031 44.775391 C 9.6377031 45.022391 10.047531 45.078969 10.394531 44.917969 C 10.741531 44.756969 10.963844 44.408391 10.964844 44.025391 C 10.97662 43.284043 10.983964 43.198169 10.996094 42.794922 C 11.564464 43.152895 12.156672 43.509841 12.802734 43.863281 A 1.50015 1.50015 0 0 0 13.621094 44.066406 C 13.740862 44.088174 16.266895 44.546751 17.845703 44.833984 C 18.136703 44.886984 18.435109 44.807187 18.662109 44.617188 C 18.890109 44.428187 19.021484 44.147562 19.021484 43.851562 L 19.021484 39.941406 C 19.705411 40.35057 20.385739 40.740157 21.027344 41.064453 C 22.080291 41.59666 22.874812 42.044824 24.017578 42.048828 C 25.180724 42.052928 25.980963 41.602468 27.076172 41.066406 C 27.695947 40.763051 28.355404 40.402978 29.021484 40.023438 L 29.021484 43.865234 C 29.021484 44.158234 29.152953 44.436047 29.376953 44.623047 C 29.601953 44.811047 29.897547 44.889891 30.185547 44.837891 C 31.762504 44.550638 34.301726 44.088248 34.421875 44.066406 A 1.50015 1.50015 0 0 0 35.242188 43.863281 C 35.888439 43.509737 36.480383 43.156219 37.048828 42.802734 C 37.060927 43.205978 37.068377 43.288762 37.080078 44.025391 C 37.080078 44.408391 37.303391 44.756969 37.650391 44.917969 C 37.997391 45.078969 38.406219 45.022391 38.699219 44.775391 C 45.626219 38.916391 45.007812 31.048828 45.007812 31.048828 L 44.992188 31.070312 C 44.998582 30.901514 45.020045 30.727161 45.021484 30.560547 C 45.054974 26.425289 42.725406 22.943663 42.433594 22.515625 C 41.121423 12.511876 36.644367 7.2834547 32.371094 4.8222656 C 28.107075 2.3664067 24.138455 2.5507517 24.017578 2.5566406 z M 19.554688 14.560547 C 20.11913 16.20242 21.259558 18.569798 23.613281 20.830078 C 23.849281 21.060078 24.200906 21.127047 24.503906 20.998047 C 24.807906 20.870047 25.005859 20.572187 25.005859 20.242188 C 25.02217 17.881931 25.021458 16.141323 25.021484 15.990234 C 26.067244 17.66983 27.804867 20.097764 30.333984 22.511719 C 29.847851 22.228258 29.380626 22.048828 29.021484 22.048828 C 28.028484 22.048828 27.021484 23.280828 27.021484 25.048828 C 27.021484 26.816828 28.028484 28.048828 29.021484 28.048828 C 30.015484 28.048828 33.021484 27.816828 33.021484 26.048828 C 33.021484 25.440501 32.691077 24.780246 32.21875 24.171875 C 32.78009 24.628448 33.362416 25.079576 33.984375 25.513672 C 33.957005 28.096503 33.84111 30.25285 33.650391 31.619141 C 33.544628 32.376811 33.425237 32.954231 33.318359 33.335938 C 33.268183 33.515138 33.210543 33.645846 33.173828 33.728516 C 33.111857 33.788015 33.048162 33.853138 32.962891 33.917969 C 32.727464 34.096959 32.386678 34.341775 31.982422 34.621094 C 31.173909 35.179732 30.101274 35.882711 28.988281 36.5625 C 27.875289 37.242289 26.717416 37.901405 25.757812 38.371094 C 24.798209 38.840782 23.863698 39.048255 24.027344 39.048828 C 24.17111 39.049332 23.290662 38.846574 22.380859 38.386719 C 21.471056 37.926863 20.376125 37.279701 19.328125 36.609375 C 18.280125 35.939049 17.273558 35.243911 16.519531 34.6875 C 16.142518 34.409294 15.826326 34.16362 15.613281 33.986328 C 15.522927 33.911136 15.452455 33.828642 15.402344 33.771484 C 15.305906 33.583916 14.929023 32.748207 14.626953 31.351562 C 14.299945 29.839613 14.021484 27.68315 14.021484 24.847656 C 14.021484 20.104192 15.79036 17.519107 17.527344 15.964844 C 18.285237 15.286676 18.986853 14.853906 19.554688 14.560547 z M 19.021484 22.048828 C 17.721484 22.048828 15.021484 24.280828 15.021484 26.048828 C 15.021484 27.816828 18.027484 28.048828 19.021484 28.048828 C 20.014484 28.048828 21.021484 26.816828 21.021484 25.048828 C 21.021484 23.280828 20.014484 22.048828 19.021484 22.048828 z M 18.222656 23.248047 C 18.663656 23.248047 19.021484 23.607828 19.021484 24.048828 C 19.021484 24.490828 18.663656 24.847656 18.222656 24.847656 C 17.780656 24.847656 17.421875 24.490828 17.421875 24.048828 C 17.421875 23.607828 17.780656 23.248047 18.222656 23.248047 z M 29.421875 23.248047 C 29.863875 23.248047 30.220703 23.607828 30.220703 24.048828 C 30.220703 24.490828 29.863875 24.847656 29.421875 24.847656 C 28.980875 24.847656 28.621094 24.490828 28.621094 24.048828 C 28.621094 23.607828 28.980875 23.248047 29.421875 23.248047 z M 24.021484 33.048828 C 23.143484 33.048828 22.021484 33.21725 22.021484 33.65625 C 22.021484 34.09525 23.143484 35.048828 24.021484 35.048828 C 24.899484 35.048828 26.021484 33.987828 26.021484 33.548828 C 26.021484 33.109828 24.899484 33.048828 24.021484 33.048828 z"/></svg>